<?xml version="1.0" standalone="no"?>
<!DOCTYPE svg PUBLIC "-//W3C//DTD SVG 20010904//EN"
 "http://www.w3.org/TR/2001/REC-SVG-20010904/DTD/svg10.dtd">
<svg version="1.0" xmlns="http://www.w3.org/2000/svg"
 width="512.000000pt" height="512.000000pt" viewBox="0 0 512.000000 512.000000"
 preserveAspectRatio="xMidYMid meet">

<g transform="translate(0.000000,512.000000) scale(0.100000,-0.100000)"
fill="#000000" stroke="none">
<path d="M2391 3363 l4 -657 -80 -12 c-88 -13 -169 -33 -259 -64 -33 -11 -60
-19 -61 -18 -1 2 -17 282 -34 623 -17 341 -34 655 -38 698 l-6 77 -168 0 c-93
0 -169 -3 -169 -7 0 -5 27 -361 59 -793 l59 -785 -45 -50 c-59 -67 -110 -174
-125 -261 -25 -150 35 -313 161 -439 l70 -70 56 -770 c31 -424 58 -785 61
-802 l5 -33 125 0 125 0 -6 107 c-19 301 -71 1339 -68 1342 2 3 27 -3 56 -11
59 -19 179 -44 248 -53 42 -5 47 -9 53 -37 3 -17 6 -218 6 -448 0 -229 3 -525
7 -658 l6 -242 127 0 127 0 6 482 c4 265 7 575 7 690 0 114 2 208 4 208 27 0
202 37 269 57 48 14 89 24 91 22 1 -2 -14 -323 -35 -714 -21 -390 -38 -718
-38 -727 -1 -16 11 -18 123 -18 l124 0 6 38 c3 20 31 388 62 817 l57 780 60
64 c110 118 162 275 139 412 -15 85 -57 180 -105 237 -21 24 -37 45 -37 47 0
2 27 364 60 806 33 442 60 805 60 807 0 1 -76 2 -169 2 l-168 0 -6 -72 c-4
-40 -21 -356 -38 -703 -18 -346 -33 -631 -34 -633 -1 -1 -49 13 -106 32 -57
20 -148 43 -203 53 l-98 18 7 651 7 651 -68 6 c-38 4 -116 7 -173 7 l-104 0 4
-657z m454 -737 c159 -36 298 -93 405 -166 64 -44 178 -159 208 -210 74 -127
66 -315 -18 -443 -40 -59 -126 -138 -212 -194 -310 -201 -814 -238 -1192 -86
-122 48 -213 105 -300 184 -108 100 -156 203 -157 335 0 122 45 222 145 318
155 148 363 242 621 280 70 10 432 -3 500 -18z"/>
<path d="M736 3993 c2 -10 130 -898 284 -1973 154 -1075 283 -1970 286 -1987
l6 -33 129 0 c71 0 129 2 129 4 0 3 -88 695 -195 1538 -108 843 -220 1727
-250 1963 -30 237 -57 447 -61 468 l-6 37 -163 0 c-150 0 -163 -1 -159 -17z"/>
<path d="M4056 3978 c-3 -18 -33 -249 -66 -513 -33 -264 -146 -1150 -250
-1968 -105 -819 -190 -1491 -190 -1493 0 -2 58 -4 129 -4 l129 0 11 68 c6 37
67 459 136 937 199 1390 373 2604 404 2813 l28 192 -162 0 -163 0 -6 -32z"/>
</g>
</svg>
